<?xml version="1.0" encoding="UTF-8"?>
<svg xmlns="http://www.w3.org/2000/svg" width="1200" height="260" viewBox="0 0 1200 260" role="img" aria-labelledby="title desc">
  <title id="title">GitBridge</title>
  <desc id="desc">Banner logo for GitBridge documentation</desc>
  <defs>
    <linearGradient id="g" x1="0" y1="0" x2="1" y2="1">
      <stop offset="0%" stop-color="#3f51b5"/>
      <stop offset="100%" stop-color="#673ab7"/>
    </linearGradient>
    <filter id="shadow" x="-20%" y="-20%" width="140%" height="140%">
      <feDropShadow dx="0" dy="6" stdDeviation="10" flood-color="#000" flood-opacity="0.25"/>
    </filter>
  </defs>
  <rect width="1200" height="260" rx="18" fill="url(#g)"/>
  <g filter="url(#shadow)">
    <circle cx="130" cy="130" r="64" fill="#fff" opacity="0.15"/>
    <path d="M130 80a8 8 0 0 1 8 8v28h44a8 8 0 0 1 0 16h-44v28a8 8 0 0 1-16 0v-28H78a8 8 0 0 1 0-16h44V88a8 8 0 0 1 8-8z" fill="#fff"/>
  </g>
  <g fill="#fff">
    <text x="220" y="120" font-family="'Roboto', 'Segoe UI', Arial, sans-serif" font-size="44" font-weight="700">GitBridge</text>
    <text x="220" y="165" font-family="'Roboto', 'Segoe UI', Arial, sans-serif" font-size="22" opacity="0.9">GitHub Repository Synchronization Tool</text>
  </g>
</svg>
